<?xml version="1.0" encoding="UTF-8" standalone="no"?>
<!-- Created with Inkscape (http://www.inkscape.org/) -->

<svg
   xmlns:dc="http://purl.org/dc/elements/1.1/"
   xmlns:cc="http://creativecommons.org/ns#"
   xmlns:rdf="http://www.w3.org/1999/02/22-rdf-syntax-ns#"
   xmlns:svg="http://www.w3.org/2000/svg"
   xmlns="http://www.w3.org/2000/svg"
   xmlns:xlink="http://www.w3.org/1999/xlink"
   version="1.1"
   width="300"
   height="360"
   id="svg2">
  <metadata
     id="metadata7">
    <rdf:RDF>
      <cc:Work
         rdf:about="">
        <dc:format>image/svg+xml</dc:format>
        <dc:type
           rdf:resource="http://purl.org/dc/dcmitype/StillImage" />
        <dc:title></dc:title>
        <dc:creator>
          <cc:Agent>
            <dc:title>Aleksi Salmela</dc:title>
          </cc:Agent>
        </dc:creator>
        <dc:description>A duck logo of the TestMyCode project.</dc:description>
        <dc:contributor>
          <cc:Agent>
            <dc:title>Jarmo Isotalo, Arto Vihavainen</dc:title>
          </cc:Agent>
        </dc:contributor>
        <cc:license
           rdf:resource="http://creativecommons.org/licenses/by-sa/4.0/" />
      </cc:Work>
      <cc:License
         rdf:about="http://creativecommons.org/licenses/by-sa/3.0/">
        <cc:permits
           rdf:resource="http://creativecommons.org/ns#Reproduction" />
        <cc:permits
           rdf:resource="http://creativecommons.org/ns#Distribution" />
        <cc:requires
           rdf:resource="http://creativecommons.org/ns#Notice" />
        <cc:requires
           rdf:resource="http://creativecommons.org/ns#Attribution" />
        <cc:permits
           rdf:resource="http://creativecommons.org/ns#DerivativeWorks" />
        <cc:requires
           rdf:resource="http://creativecommons.org/ns#ShareAlike" />
      </cc:License>
    </rdf:RDF>
  </metadata>
  <defs
     id="defs4">
    <linearGradient
       id="linearGradient4176">
      <stop
         id="stop4178"
         style="stop-color:#000000;stop-opacity:1"
         offset="0" />
      <stop
         id="stop4180"
         style="stop-color:#000000;stop-opacity:0"
         offset="1" />
    </linearGradient>
    <linearGradient
       id="linearGradient4011">
      <stop
         id="stop4013"
         style="stop-color:#953703;stop-opacity:1"
         offset="0" />
      <stop
         id="stop4015"
         style="stop-color:#742a00;stop-opacity:1"
         offset="1" />
    </linearGradient>
    <linearGradient
       x1="314.15744"
       y1="362.93307"
       x2="314.15744"
       y2="380.61795"
       id="linearGradient3278"
       xlink:href="#linearGradient4011"
       gradientUnits="userSpaceOnUse"
       gradientTransform="matrix(0.87678189,0,0,0.87678189,-134.13537,-134.12155)" />
    <radialGradient
       cx="376.35828"
       cy="652.60724"
       r="178.52936"
       fx="376.35828"
       fy="652.60724"
       id="radialGradient3294"
       xlink:href="#linearGradient4176"
       gradientUnits="userSpaceOnUse"
       gradientTransform="matrix(0.75275699,0,1.9937172e-7,0.14613031,-119.3423,343.59269)" />
    <linearGradient
       x1="314.15744"
       y1="362.93307"
       x2="314.15744"
       y2="380.61795"
       id="linearGradient3062"
       xlink:href="#linearGradient4011"
       gradientUnits="userSpaceOnUse"
       gradientTransform="matrix(0.87678189,0,0,0.87678189,-132.65683,-137.69969)" />
    <radialGradient
       cx="376.35828"
       cy="652.60724"
       r="178.52936"
       fx="376.35828"
       fy="652.60724"
       id="radialGradient3080"
       xlink:href="#linearGradient4176"
       gradientUnits="userSpaceOnUse"
       gradientTransform="matrix(0.75275699,0,1.9937172e-7,0.14613031,-117.86376,340.01455)" />
    <radialGradient
       cx="376.35828"
       cy="652.60724"
       r="178.52936"
       fx="376.35828"
       fy="652.60724"
       id="radialGradient3114"
       xlink:href="#linearGradient4176"
       gradientUnits="userSpaceOnUse"
       gradientTransform="matrix(0.75275699,0,1.9937172e-7,0.14613031,-117.86376,340.01455)" />
    <linearGradient
       x1="314.15744"
       y1="362.93307"
       x2="314.15744"
       y2="380.61795"
       id="linearGradient3116"
       xlink:href="#linearGradient4011"
       gradientUnits="userSpaceOnUse"
       gradientTransform="matrix(0.87678189,0,0,0.87678189,-132.65683,-137.69969)" />
    <linearGradient
       x1="314.15744"
       y1="362.93307"
       x2="314.15744"
       y2="380.61795"
       id="linearGradient3125"
       xlink:href="#linearGradient4011"
       gradientUnits="userSpaceOnUse"
       gradientTransform="matrix(0.65758642,0,0,0.65758642,-99.492623,-110.77477)" />
    <radialGradient
       cx="376.35828"
       cy="652.60724"
       r="178.52936"
       fx="376.35828"
       fy="652.60724"
       id="radialGradient3143"
       xlink:href="#linearGradient4176"
       gradientUnits="userSpaceOnUse"
       gradientTransform="matrix(0.56456774,0,1.4952879e-7,0.10959773,-88.39782,247.51091)" />
  </defs>
  <g
     transform="translate(-166.40243,-310.3322)"
     id="layer1" />
  <g
     transform="translate(-166.40243,-310.3322)"
     id="layer3"
     style="display:inline" />
  <g
     transform="translate(-166.40243,-310.3322)"
     id="layer5"
     style="display:inline" />
  <g
     transform="translate(-166.40243,-310.3322)"
     id="layer2"
     style="display:none">
    <path
       d="m 215.03363,365.63793 c 0,-13.92857 33.57143,-10 50.89285,-18.92857 17.32143,-8.92857 30.17852,-22.5 48.74998,-22.5 18.57146,0 31.42855,13.57143 48.74998,22.5 17.32142,8.92857 50.89285,5 50.89285,18.92857 0,13.92857 -25.53571,14.46432 -99.64283,14.46432 -74.10712,0 -99.64283,-0.53575 -99.64283,-14.46432 z"
       id="path3030"
       style="fill:#8ae234;stroke:none" />
  </g>
  <path
     d="m 224.87393,319.0352 a 100.79192,19.566413 0 1 1 -201.583825,0 100.79192,19.566413 0 1 1 201.583825,0 z"
     id="path4172"
     style="opacity:0.29880479;fill:url(#radialGradient3143);fill-opacity:1;stroke:none" />
  <path
     d="m 20.705527,245.56671 c 3.757636,54.01603 55.425143,86.89534 127.289943,72.80421 71.8648,-14.09114 130.10817,-51.6675 131.98698,-131.51729 1.87882,-79.84977 -10.12254,-128.42078 -17.84876,-126.35053 -12.90457,3.45777 -33.34903,57.77366 -83.13772,65.75864 -35.64647,4.96796 -86.560263,22.07553 -117.938148,32.80375 -43.03935,14.71531 -42.824325,47.34384 -40.352295,86.50122 z"
     id="path2996"
     style="fill:#e8dc1c;fill-opacity:1;stroke:none" />
  <path
     d="m 183.92784,125.25633 c -2.44553,0.65677 -2.32981,0.59083 -4.93262,1.00825 -35.64646,4.96796 -86.556115,22.06891 -117.934007,32.79713 -6.184703,2.11457 -11.46756,4.59781 -15.98757,7.41839 0,0 8.812005,12.64232 32.653274,16.27527 34.523293,5.26069 68.093293,1.37519 86.965803,-9.535 15.12672,-8.74476 28.62639,-34.87782 19.23512,-47.96404 z"
     id="path4392"
     style="opacity:0.2;fill:#000000;fill-opacity:1;stroke:none" />
  <path
     d="M 184.33886,126.19844 C 183.50731,90.26293 174.03316,13.89547 105.91661,13.89547 c -68.116542,0 -77.5907,76.36746 -78.422248,112.30297 0,24.8885 16.90539,49.77697 78.422248,49.77697 61.51685,0 78.42225,-24.88847 78.42225,-49.77697 z"
     id="path3073"
     style="fill:#ece234;fill-opacity:1;stroke:none" />
  <g
     transform="matrix(0.9265524,0,0,0.9265524,-75.510052,-26.613)"
     id="g3080">
    <path
       d="m 184.04221,104.7357 a 20.592145,28.231166 0 0 1 -41.18429,0 20.592145,28.231166 0 1 1 41.18429,0 z"
       id="path3006"
       style="fill:#f4f4e7;fill-opacity:1;stroke:none" />
    <path
       d="m 162.85499,96.542463 c -10.08871,0 -18.27543,8.186717 -18.27543,18.275427 0,0.50091 0.0426,0.98883 0.0822,1.47957 3.22218,9.82493 10.42905,16.65885 18.79601,16.65885 6.33347,0 12.00468,-3.91618 15.78207,-10.08299 1.19493,-2.42918 1.89056,-5.16538 1.89056,-8.05543 0,-10.08871 -8.18671,-18.275427 -18.27542,-18.275427 z"
       id="path3771"
       style="fill:#1e1d00;fill-opacity:1;stroke:none" />
    <path
       d="m 174.07635,115.44449 a 5.4248126,5.4248126 0 1 1 -10.84962,0 5.4248126,5.4248126 0 1 1 10.84962,0 z"
       id="path3016"
       style="fill:#ffffff;fill-opacity:1;stroke:none" />
  </g>
  <path
     d="m 216.94362,242.59789 c -24.67345,14.49742 -73.6454,28.82379 -86.32722,-7.17703 -9.73223,-27.6276 18.82727,-41.70035 37.57636,-48.84928 32.64447,-12.44716 57.12974,-11.68776 77.93319,-5.03104 16.76373,5.36409 -3.65377,42.83238 -29.18233,61.05735 z"
     id="path4401"
     style="opacity:0.3;fill:#000000;fill-opacity:1;stroke:none;display:inline" />
  <path
     d="m 266.36102,139.41347 c 4.58153,0.56389 1.3717,11.98586 0.19334,19.21897 -4.3614,26.77163 -24.32673,62.11392 -44.11071,75.4265 -25.1292,16.90937 -80.36591,39.48637 -91.82725,-3.28792 -7.58123,-28.29356 18.82727,-41.70034 37.57637,-48.84928 32.64447,-12.44716 56.5994,-1.87882 74.21332,-14.79569 21.48843,-15.75819 18.74281,-28.35408 23.95493,-27.71258 z"
     id="path3829"
     style="fill:#dcbc28;fill-opacity:1;stroke:none;display:inline" />
  <path
     d="m 145.08886,225.53169 c 87.88195,-11.15961 121.36078,-81.37216 121.36078,-81.37216 0,0 -36.26873,83.69708 -121.36078,81.37216 z"
     id="path4403"
     style="opacity:0.3;fill:#000000;fill-opacity:1;stroke:none;display:inline" />
  <path
     d="m 161.82828,240.87616 c 87.88195,-11.15961 105.55133,-93.46175 105.55133,-93.46175 0,0 -20.45929,95.78667 -105.55133,93.46175 z"
     id="path4405"
     style="opacity:0.3;fill:#000000;fill-opacity:1;stroke:none;display:inline" />
  <path
     d="m 228.78594,128.81506 c 12.16147,-20.64556 32.10472,-65.42729 32.79305,-66.98104 0,0 -15.12366,47.91671 -32.79305,66.98104 z"
     id="path4407"
     style="opacity:0.3;fill:#000000;fill-opacity:1;stroke:none;display:inline" />
  <path
     d="m 250.15751,115.99213 c 6.24319,-17.02884 11.88392,-52.68656 12.20237,-53.78821 0,0 -1.10885,35.71025 -12.20237,53.78821 z"
     id="path4411"
     style="opacity:0.3;fill:#000000;fill-opacity:1;stroke:none;display:inline" />
  <path
     d="m 107.43435,119.69431 c -16.791923,0 -12.682027,12.20108 -36.989242,12.20108 -24.039826,0 -28.388423,-1.15128 -28.481708,-1.17688 -0.018,0.20661 -0.0411,0.40667 -0.0411,0.62446 0,10.7051 16.780215,11.12027 65.51205,11.12027 48.73184,0 65.53259,-0.41517 65.53259,-11.12027 0,-0.21779 -0.0231,-0.41785 -0.0411,-0.62446 -0.0933,0.0256 -4.46243,1.17688 -28.50226,1.17688 -24.30721,0 -20.19731,-12.20108 -36.98923,-12.20108 z"
     id="path4395"
     style="opacity:0.3;fill:#000000;fill-opacity:1;stroke:none" />
  <path
     d="m 107.4549,102.43267 c 12.21234,0 20.66701,8.92438 32.05733,14.79569 11.15862,5.75186 32.54696,3.38515 33.41361,11.8982 -0.0933,0.0219 -4.44188,2.63438 -28.48171,2.63438 l -73.978473,0 c -24.039825,0 -28.408972,-2.61247 -28.502257,-2.63438 0.866655,-8.51305 22.275547,-6.14634 33.43416,-11.8982 11.39034,-5.87131 19.845,-14.79569 32.05734,-14.79569 z"
     id="path3037"
     style="fill:#d1631d;fill-opacity:1;stroke:none" />
  <path
     d="m 107.43435,119.69431 c -16.791923,0 -12.682027,10.43919 -36.989242,10.43919 -24.039826,0 -28.388423,-0.98503 -28.481708,-1.00694 -0.018,0.17679 -0.0411,0.34796 -0.0411,0.53429 0,9.15924 16.780215,9.51446 65.51205,9.51446 48.73184,0 65.53259,-0.35522 65.53259,-9.51446 0,-0.18633 -0.0231,-0.3575 -0.0411,-0.53429 -0.0933,0.0219 -4.46243,1.00694 -28.50226,1.00694 -24.30721,0 -20.19731,-10.43919 -36.98923,-10.43919 z"
     id="path3026"
     style="fill:url(#linearGradient3125);fill-opacity:1;stroke:none" />
  <path
     d="m 92.07384,118.74199 a 1.4945912,2.6155348 53.991629 0 1 -1.757348,-2.41804 1.4945912,2.6155348 53.991629 1 1 1.757348,2.41804 z"
     id="path3028"
     style="fill:#521d00;fill-opacity:1;stroke:none" />
  <path
     d="m 122.81541,118.74199 a 2.6155348,1.4945912 36.008371 1 0 1.75735,-2.41804 2.6155348,1.4945912 36.008371 0 0 -1.75735,2.41804 z"
     id="path3820"
     style="fill:#521d00;fill-opacity:1;stroke:none" />
  <g
     transform="matrix(0.9265524,0,0,0.9265524,-15.54683,-26.613)"
     id="g3085">
    <path
       d="m 184.04221,104.7357 a 20.592145,28.231166 0 0 1 -41.18429,0 20.592145,28.231166 0 1 1 41.18429,0 z"
       id="path3087"
       style="fill:#f4f4e7;fill-opacity:1;stroke:none" />
    <path
       d="m 162.85499,96.542463 c -10.08871,0 -18.27543,8.186717 -18.27543,18.275427 0,0.50091 0.0426,0.98883 0.0822,1.47957 3.22218,9.82493 10.42905,16.65885 18.79601,16.65885 6.33347,0 12.00468,-3.91618 15.78207,-10.08299 1.19493,-2.42918 1.89056,-5.16538 1.89056,-8.05543 0,-10.08871 -8.18671,-18.275427 -18.27542,-18.275427 z"
       id="path3089"
       style="fill:#1e1d00;fill-opacity:1;stroke:none" />
    <path
       d="m 174.07635,115.44449 a 5.4248126,5.4248126 0 1 1 -10.84962,0 5.4248126,5.4248126 0 1 1 10.84962,0 z"
       id="path3091"
       style="fill:#ffffff;fill-opacity:1;stroke:none" />
  </g>
</svg>
